<svg xmlns="http://www.w3.org/2000/svg" aria-hidden="true" style="position:absolute;width:0;height:0;overflow:hidden">
  <defs>
    <symbol id="icon-antenna1" viewBox="0 0 30 32">
      <path fill="#2e2f42" d="m29.315 21.959-8.313-8.374.923-4.545c.238.093.491.142.747.143h.006a2.126 2.126 0 1 0-1.977-1.413l-4.884.596L7.851.358A.528.528 0 0 0 7.48.2a.529.529 0 0 0-.368.153L5.623 1.834a.526.526 0 0 0 0 .743l.801.813a14.711 14.711 0 0 0 2.481 17.391c.042.04.091.073.144.096-.033.178-.05.358-.051.539v6.092H2.696A2.63 2.63 0 0 0 .07 30.134v1.05c0 .29.235.525.525.525h24.156c.29 0 .525-.235.525-.525v-1.05a2.63 2.63 0 0 0-2.626-2.626h-6.302v-2.7a14.77 14.77 0 0 0 3.002.315 14.63 14.63 0 0 0 6.932-1.756l.806.81c.098.1.231.156.371.158a.529.529 0 0 0 .368-.153l1.489-1.481a.526.526 0 0 0 0-.743zM21.937 6.338a1.05 1.05 0 1 1 .74 1.795h-.003a1.05 1.05 0 0 1-.735-1.795h-.002zm-1.236 3.451-.589 2.9-1.157-1.164 1.747-1.736zm-.597-.888-1.89 1.879-1.462-1.47 3.353-.409zm2.546 19.657c.87 0 1.575.705 1.575 1.575v.525H1.119v-.525c0-.87.705-1.575 1.575-1.575h19.955zm-7.352-2.101v1.05h-5.251v-1.05h5.251zm-5.251-1.05v-3.991c0-1.274 1.178-2.311 2.626-2.311s2.626 1.037 2.626 2.311v3.991h-5.251zm6.302-1.67v-2.321c0-1.853-1.649-3.361-3.676-3.361a3.742 3.742 0 0 0-3.231 1.759A13.658 13.658 0 0 1 7.198 4.171l18.316 18.421a13.604 13.604 0 0 1-9.166 1.145zm11.115-.673L6.731 2.209l.743-.74 7.813 7.857c.004 0 .006.007.009.009l12.913 12.989-.745.74z" style="fill:var(--color1, #2e2f42)"/>
      <path fill="#4d5ae5" d="M12.677 20.156h-.005a1.576 1.576 0 0 0-.005 3.151h.005a1.576 1.576 0 0 0 .005-3.151zm.368 1.948a.525.525 0 1 1-.371-.898.525.525 0 0 1 .367.898h.005z" style="fill:var(--color2, #4d5ae5)"/>
    </symbol>
    <symbol id="icon-clock2" viewBox="0 0 32 32">
      <path fill="#2e2f42" d="M30.815 15.267C30.813 6.945 24.065.199 15.743.201S.675 6.951.677 15.273a15.068 15.068 0 0 0 10.486 14.352.664.664 0 0 0 .521-.064.632.632 0 0 0 .279-.351l3.806-12.062a1.884 1.884 0 1 0-.826-3.579L9.916 8.541a.628.628 0 0 0-.888.888l5.025 5.031a1.848 1.848 0 0 0 .528 2.274l-3.626 11.493C3.789 25.587.12 17.639 2.76 10.473S13.348-.362 20.514 2.278c7.166 2.64 10.835 10.589 8.195 17.754a13.83 13.83 0 0 1-7.347 7.851l-.392-1.845a.628.628 0 0 0-1.032-.338l-3.778 3.373a.628.628 0 0 0 .228 1.068l4.823 1.539a.628.628 0 0 0 .807-.729l-.385-1.811a15.02 15.02 0 0 0 9.185-13.872zm-15.069-.628a.628.628 0 1 1 0 1.256.628.628 0 0 1 0-1.256zm2.068 14.635 2.15-1.918.594 2.797-2.744-.878z" style="fill:var(--color1, #2e2f42)"/>
      <path fill="#4d5ae5" d="M15.118 3.337v1.256a.628.628 0 1 0 1.256 0V3.337a.628.628 0 1 0-1.256 0zM3.816 14.639a.628.628 0 1 0 0 1.256h1.256a.628.628 0 1 0 0-1.256H3.816zM27.676 15.895a.628.628 0 1 0 0-1.256H26.42a.628.628 0 1 0 0 1.256h1.256z" style="fill:var(--color2, #4d5ae5)"/>
    </symbol>
    <symbol id="icon-diagram3" viewBox="0 0 32 32">
      <path fill="#4d5ae5" d="M14.696 14.935h1.05v4.724h-1.05v-4.724zM18.895 17.035h1.05v2.624h-1.05v-2.624zM10.497 18.609h1.05v1.05h-1.05v-1.05zM7.348 18.084h1.05v1.575h-1.05v-1.575z" style="fill:var(--color2, #4d5ae5)"/>
      <path fill="#2e2f42" d="M1.575 28.057h25.193c.87 0 1.575-.705 1.575-1.575v-2.099c0-.87-.705-1.575-1.575-1.575h-.525V9.719l2.981-2.824a1.583 1.583 0 1 0-.735-.752l-2.246 2.129V7.061c0-.87-.705-1.575-1.575-1.575H3.674c-.87 0-1.575.705-1.575 1.575v15.746h-.525c-.87 0-1.575.705-1.575 1.575v2.099c0 .87.705 1.575 1.575 1.575zM29.917 4.963a.525.525 0 1 1 0 1.05.525.525 0 0 1 0-1.05zm-26.768 2.1c0-.29.235-.525.525-.525h20.994c.29 0 .525.235.525.525v2.204l-1.05.997V8.112a.525.525 0 0 0-.525-.525H4.723a.525.525 0 0 0-.525.525v13.121c0 .29.235.525.525.525h18.895c.29 0 .525-.235.525-.525v-9.525l1.05-.995v12.095H3.149V7.062zm4.724 6.823a1.576 1.576 0 1 0 1.091 2.707l1.824.915a.526.526 0 0 0 .627-.121l3.878-4.363 3.812 2.857c.204.153.49.137.676-.039l3.313-3.139v8.006H5.249V8.637h17.845v2.619l-3.713 3.517-3.844-2.882a.524.524 0 0 0-.707.071l-3.932 4.424-1.47-.735a1.53 1.53 0 0 0 .02-.19c0-.87-.705-1.575-1.575-1.575zm.525 1.574a.525.525 0 1 1-1.05 0 .525.525 0 0 1 1.05 0zm3.149 8.398h5.249v.525c0 .29-.235.525-.525.525h-4.199a.525.525 0 0 1-.525-.525v-.525zm-10.497.525c0-.29.235-.525.525-.525h8.923v.525c0 .87.705 1.575 1.575 1.575h4.199c.869 0 1.575-.705 1.575-1.575v-.525h8.922c.29 0 .525.235.525.525v2.099c0 .29-.235.525-.525.525H1.576a.525.525 0 0 1-.525-.525v-2.099z" style="fill:var(--color1, #2e2f42)"/>
    </symbol>
    <symbol id="icon-astronaut4" viewBox="0 0 32 32">
      <path fill="#4d5ae5" d="M31.482 4.655a.525.525 0 0 0-.424-.357l-1.881-.274-.842-1.705c-.176-.359-.765-.359-.942 0l-.842 1.705-1.881.274a.525.525 0 0 0-.291.895l1.362 1.327-.321 1.874a.525.525 0 0 0 .762.554l1.683-.885 1.683.885a.531.531 0 0 0 .554-.04.525.525 0 0 0 .209-.514L29.99 6.52l1.362-1.327a.527.527 0 0 0 .133-.538zm-2.425 1.307a.528.528 0 0 0-.151.465l.188 1.097-.985-.518a.531.531 0 0 0-.49 0l-.985.518.188-1.097a.526.526 0 0 0-.151-.465l-.798-.777 1.102-.16a.524.524 0 0 0 .395-.287l.493-.998.493.998a.523.523 0 0 0 .395.287l1.102.16-.797.777zM25.731 20.407h-1.05v1.05h1.05v-1.05zM25.731 22.508h-1.05v1.05h1.05v-1.05zM26.782 21.458h-1.05v1.05h1.05v-1.05zM24.681 21.458h-1.05v1.05h1.05v-1.05zM22.055 26.184h-1.05v1.05h1.05v-1.05zM22.055 28.285h-1.05v1.05h1.05v-1.05zM23.106 27.234h-1.05v1.05h1.05v-1.05zM21.005 27.234h-1.05v1.05h1.05v-1.05zM15.754 24.083h-1.05v1.05h1.05v-1.05zM15.754 26.184h-1.05v1.05h1.05v-1.05zM16.804 25.134h-1.05v1.05h1.05v-1.05zM14.704 25.134h-1.05v1.05h1.05v-1.05zM5.776 6.229h-1.05v1.05h1.05v-1.05zM5.776 8.329h-1.05v1.05h1.05v-1.05zM6.827 7.279h-1.05v1.05h1.05v-1.05zM4.726 7.279h-1.05v1.05h1.05v-1.05z" style="fill:var(--color2, #4d5ae5)"/>
      <path fill="#2e2f42" d="M24.335 14.143a1.748 1.748 0 0 0-1.17-.694 1.747 1.747 0 0 0-1.319.347l-1.233.945-1.868 1.395-1.337-.532c2.384-1.07 4.05-3.454 4.05-6.223 0-3.764-3.075-6.827-6.854-6.827S7.75 5.617 7.75 9.381c0 1.364.408 2.633 1.103 3.701l-2.721-.024h-.005c-.008 0-.015.004-.023.005a.54.54 0 0 0-.153.03c-.013.005-.026.007-.038.013-.006.003-.013.003-.019.006l-3.183 1.572-.001.001-1.864.896a.438.438 0 0 0-.062.035 1.753 1.753 0 0 0 .451 3.135 1.764 1.764 0 0 0 1.358-.127l1.366-.727 2.229-1.151 1.336-.008-5.358 5.332-.002.001-1.318 1.313c-.311.31-.483.721-.483 1.16s.171.85.483 1.161a1.646 1.646 0 0 0 2.323 0l1.294-1.289 1.714-1.28.887.883-1.735 1.727-.002.001-1.318 1.313c-.311.31-.483.721-.483 1.16s.171.85.483 1.161c.32.318.741.478 1.162.478s.842-.16 1.162-.478l3.428-3.413.001-.002.994-.985-.004-.004c.006-.006.015-.008.021-.015l5.086-5.571 3.418.486a.504.504 0 0 0 .258-.033c.017-.006.033-.015.049-.023.019-.009.039-.015.057-.027l3.164-2.101c.012-.008.018-.02.029-.029.013-.01.028-.014.04-.025l1.252-1.173c.651-.61.741-1.61.209-2.325zM2.098 17.698a.703.703 0 0 1-.55.051.703.703 0 0 1-.209-1.24l1.293-.622.442 1.292-.977.519zm3.443-1.8-1.524.788-.432-1.264 1.996-.985-.039 1.461zM20.408 9.38c0 .904-.216 1.757-.59 2.52l-4.117-1.87a1.83 1.83 0 0 0-.776-1.366l1.442-4.786c2.341.745 4.041 2.929 4.041 5.502zM8.8 9.38c0-3.185 2.604-5.777 5.804-5.777.249 0 .493.021.734.051l-1.41 4.681c-.019-.001-.037-.006-.056-.006-1.017 0-1.844.824-1.844 1.838s.827 1.838 1.844 1.838a1.84 1.84 0 0 0 1.593-.93l3.803 1.728a5.802 5.802 0 0 1-4.664 2.353c-3.2 0-5.804-2.592-5.804-5.777zm5.865.787c0 .434-.356.788-.793.788s-.793-.353-.793-.788c0-.434.356-.788.793-.788s.793.353.793.788zM2.427 24.96a.599.599 0 0 1-.841.001.583.583 0 0 1 0-.831l.947-.944.838.834-.944.94zm3.164 3.676a.6.6 0 0 1-.842.001.583.583 0 0 1 0-.831l.948-.944.839.834-.945.94zm3.428-3.415-.002.001-1.738 1.733-.839-.834 1.736-1.728.002-.001c.039-.039.064-.087.088-.133.007-.014.02-.025.026-.039.016-.04.019-.084.025-.127.003-.024.014-.047.014-.071 0-.035-.013-.069-.02-.104-.006-.032-.006-.064-.018-.094a.535.535 0 0 0-.09-.136c-.01-.012-.014-.026-.025-.037h-.001l-.001-.002-1.582-1.575c-.017-.017-.038-.024-.057-.038a.61.61 0 0 0-.086-.057.436.436 0 0 0-.092-.032.5.5 0 0 0-.101-.019.494.494 0 0 0-.094.005.511.511 0 0 0-.102.02c-.033.011-.062.027-.093.044-.019.011-.042.015-.06.028l-1.746 1.303-.887-.883 2.362-2.349 4.293 4.223-.913.905zm6.714-6.909c-.015-.002-.029.004-.045.003a.537.537 0 0 0-.377.134c-.013.011-.028.016-.039.029l-4.626 5.067-4.261-4.191 2.789-2.775a.527.527 0 0 0-.373-.897v-.001l-2.185.013.027-1.583 3.056.026a6.843 6.843 0 0 0 4.905 2.069c.431 0 .851-.045 1.26-.121a.49.49 0 0 0 .128.084l2.373.945.15.747.175.872-2.956-.421zm3.979.176-.308-1.534 1.424-1.063.932 1.237-2.048 1.36zm3.696-2.788-.825.773-.917-1.217.819-.627a.724.724 0 0 1 .535-.141.704.704 0 0 1 .389 1.213z" style="fill:var(--color1, #2e2f42)"/>
      <path fill="#2e2f42" d="m13.393 18.46-2.11-2.101a.525.525 0 0 0-.741 0L8.433 18.46a.526.526 0 0 0 0 .744l2.109 2.101a.524.524 0 0 0 .741 0l2.11-2.101a.527.527 0 0 0 0-.744zm-2.48 1.732-1.365-1.36 1.365-1.36 1.366 1.36-1.366 1.36zM16.9 5.194l-.254 1.02c.07.017 1.711.445 1.711 2.116h1.05c0-1.986-1.64-2.92-2.508-3.136zM19.408 9.38h-1.05v1.05h1.05V9.38z" style="fill:var(--color1, #2e2f42)"/>
    </symbol>
    <symbol id="icon-instagram1" viewBox="0 0 32 32">
      <path d="M31.969 9.408c-.075-1.7-.35-2.869-.744-3.882a7.803 7.803 0 0 0-1.85-2.838A7.867 7.867 0 0 0 26.543.844C25.524.45 24.361.175 22.661.1 20.948.019 20.404 0 16.06 0s-4.888.019-6.595.094c-1.7.075-2.869.35-3.882.744a7.803 7.803 0 0 0-2.838 1.85A7.867 7.867 0 0 0 .901 5.52C.507 6.539.232 7.702.157 9.402c-.081 1.713-.1 2.257-.1 6.601s.019 4.888.094 6.595c.075 1.7.35 2.869.744 3.882a7.895 7.895 0 0 0 1.85 2.838 7.867 7.867 0 0 0 2.832 1.844c1.019.394 2.182.669 3.882.744 1.706.075 2.25.094 6.595.094s4.888-.019 6.595-.094c1.7-.075 2.869-.35 3.882-.744a8.181 8.181 0 0 0 4.682-4.682c.394-1.019.669-2.182.744-3.882.075-1.707.094-2.25.094-6.595s-.006-4.888-.081-6.595zm-2.882 13.065c-.069 1.563-.331 2.407-.55 2.969a5.31 5.31 0 0 1-3.038 3.038c-.563.219-1.413.481-2.969.55-1.688.075-2.194.094-6.464.094s-4.782-.019-6.464-.094c-1.563-.069-2.407-.331-2.969-.55a4.926 4.926 0 0 1-1.838-1.194 4.974 4.974 0 0 1-1.194-1.838c-.219-.563-.481-1.413-.55-2.969-.075-1.688-.094-2.194-.094-6.464s.019-4.782.094-6.464c.069-1.563.331-2.407.55-2.969a4.868 4.868 0 0 1 1.2-1.838A4.974 4.974 0 0 1 6.639 3.55c.563-.219 1.413-.481 2.969-.55 1.688-.075 2.194-.094 6.464-.094 4.276 0 4.782.019 6.464.094 1.563.069 2.407.331 2.969.55a4.914 4.914 0 0 1 1.838 1.194 4.974 4.974 0 0 1 1.194 1.838c.219.563.481 1.413.55 2.969.075 1.688.094 2.194.094 6.464s-.019 4.77-.094 6.458z"/>
      <path d="M16.059 7.783c-4.538 0-8.22 3.682-8.22 8.22s3.682 8.22 8.22 8.22 8.22-3.682 8.22-8.22-3.682-8.22-8.22-8.22zm0 13.552a5.333 5.333 0 0 1 0-10.664 5.333 5.333 0 0 1 0 10.664zM26.524 7.458a1.919 1.919 0 1 1-3.838 0 1.919 1.919 0 0 1 3.838 0z"/>
    </symbol>
    <symbol id="icon-twitter2" viewBox="0 0 32 32">
      <path d="M32 6.078c-1.19.522-2.458.868-3.78 1.036a6.523 6.523 0 0 0 2.886-3.626 13.11 13.11 0 0 1-4.16 1.588A6.574 6.574 0 0 0 22.154 3c-3.632 0-6.556 2.948-6.556 6.562 0 .52.044 1.02.152 1.496-5.454-.266-10.28-2.88-13.522-6.862a6.605 6.605 0 0 0-.898 3.316 6.57 6.57 0 0 0 2.914 5.452 6.479 6.479 0 0 1-2.964-.808v.072c0 3.188 2.274 5.836 5.256 6.446a6.548 6.548 0 0 1-1.72.216 5.8 5.8 0 0 1-1.242-.112c.85 2.598 3.262 4.508 6.13 4.57a13.182 13.182 0 0 1-8.134 2.798c-.538 0-1.054-.024-1.57-.09A18.469 18.469 0 0 0 10.064 29c12.072 0 18.672-10 18.672-18.668 0-.29-.01-.57-.024-.848A13.087 13.087 0 0 0 32 6.078z"/>
    </symbol>
    <symbol id="icon-facebook3" viewBox="0 0 32 32">
      <path d="M21.329 5.313h2.921V.225C23.746.156 22.013 0 19.994 0c-4.212 0-7.097 2.649-7.097 7.519V12H8.249v5.688h4.648V32h5.699V17.689h4.46l.708-5.688h-5.169V8.082c.001-1.644.444-2.769 2.735-2.769z"/>
    </symbol>
    <symbol id="icon-linkedin4" viewBox="0 0 32 32">
      <path d="M31.992 32v-.001H32V20.263c0-5.741-1.236-10.164-7.948-10.164-3.227 0-5.392 1.771-6.276 3.449h-.093v-2.913h-6.364v21.364h6.627V21.42c0-2.785.528-5.479 3.977-5.479 3.399 0 3.449 3.179 3.449 5.657v10.401h6.62zM.528 10.636h6.635V32H.528V10.636zM3.843 0C1.722 0 0 1.721 0 3.843s1.721 3.879 3.843 3.879c2.121 0 3.843-1.757 3.843-3.879A3.846 3.846 0 0 0 3.843 0z"/>
    </symbol>
    <symbol id="icon-user" viewBox="0 0 34 32">
      <path d="M16.889 16c2.946 0 5.333-2.388 5.333-5.333s-2.388-5.333-5.333-5.333v0c-2.946 0-5.333 2.388-5.333 5.333s2.388 5.333 5.333 5.333v0zM16.889 18.667c-3.561 0-10.667 1.787-10.667 5.333v1.333c0 0.732 0.599 1.333 1.333 1.333h18.667c0.732 0 1.333-0.601 1.333-1.333v-1.333c0-3.547-7.108-5.333-10.667-5.333z"></path>
    </symbol>
    <symbol id="icon-phone" viewBox="0 0 25 32">
      <path d="M20.301 18.487l-2.451-0.28c-0.067-0.008-0.145-0.013-0.223-0.013-0.531 0-1.012 0.215-1.36 0.564l-1.775 1.775c-2.752-1.42-4.94-3.607-6.322-6.278l-0.038-0.081 1.787-1.785c0.347-0.347 0.562-0.827 0.562-1.358 0-0.079-0.005-0.156-0.014-0.233l0.001 0.009-0.28-2.432c-0.115-0.966-0.93-1.708-1.918-1.708-0.001 0-0.002 0-0.002 0h-1.669c-1.091 0-1.997 0.907-1.929 1.997 0.511 8.24 7.101 14.821 15.332 15.333 1.091 0.067 1.997-0.84 1.997-1.931v-1.669c0-0.003 0-0.007 0-0.011 0-0.981-0.739-1.789-1.69-1.899l-0.009-0.001z"></path>
    </symbol>
    <symbol id="icon-email" viewBox="0 0 25 32">
      <path d="M20.667 8h-16c-1.1 0-1.991 0.9-1.991 2l-0.009 12c0 1.1 0.9 2 2 2h16c1.1 0 2-0.9 2-2v-12c0-1.1-0.9-2-2-2zM20.267 12.251l-7.069 4.419c-0.151 0.094-0.334 0.15-0.531 0.15s-0.38-0.056-0.535-0.153l0.004 0.002-7.069-4.419c-0.252-0.15-0.418-0.422-0.418-0.731 0-0.469 0.38-0.849 0.849-0.849 0.174 0 0.337 0.053 0.471 0.143l6.697 4.187 6.7-4.191c0.132-0.088 0.294-0.141 0.468-0.141 0.469 0 0.849 0.38 0.849 0.849 0 0.31-0.166 0.581-0.414 0.729l-0.004 0.002z"></path>
    </symbol>
  </defs>
</svg>